<?xml version="1.0" encoding="UTF-8"?>
<svg id="Warstwa_1" data-name="Warstwa 1" xmlns="http://www.w3.org/2000/svg" viewBox="0 0 1062.75 1168.92">
  <defs>
    <style>
      .cls-1 {
        fill: #fff;
      }
    </style>
  </defs>
  <path class="cls-1" d="M810.72,915.2c-5.1-.34-9.86-.86-14.29-1.53-4.42-.69-8.5-1.37-12.25-2.05-19.87-3.62-20.38-22.88-22.54-38.93-2.74-20.38-5.47-40.75-8.16-61.14-4.23-32-8.38-63.03-12.44-93.08-4.06-30.05-8.29-60.99-12.69-92.82-4.42-31.82-9.44-66.83-15.07-105.02-2.47-16.62-4.94-33.06-7.41-49.32-2.47-16.26-6.17-31.11-11.11-44.56-4.94-13.44-12.43-24.21-22.48-32.35-10.05-8.13-23.9-12.2-41.52-12.2-30.33,0-53.95,11.14-70.88,33.41-16.93,22.28-24.69,53.4-23.27,93.35.7,19.09,2.46,38.9,5.29,59.4,2.82,20.51,6.08,40.76,9.79,60.73,3.7,19.98,7.22,38.64,10.58,55.96,3.35,17.33,6.08,32.18,8.2,44.55,3.17,19.45,6.17,37.84,8.99,55.16,2.82,17.33,4.41,32.62,4.76,45.88.35,13.26-1.41,23.69-5.29,31.29-3.89,7.61-11.11,11.4-21.68,11.4-8.12,0-15.52-4.15-22.22-12.46-6.7-8.31-12.78-19.09-18.25-32.35-5.47-13.26-10.05-27.49-13.75-42.7-3.7-15.2-6.61-29.7-8.73-43.49-4.23-27.57-8.02-53.21-11.37-76.9-3.36-23.69-6.61-47.02-9.78-70.01-3.17-22.98-6.53-47.02-10.05-72.13-3.53-25.1-7.4-53.04-11.64-83.8-2.47-16.61-7.85-29.44-16.13-38.45-8.29-9.02-18.6-13.53-30.94-13.53h-114.25v2.65c5.29.35,10.22.89,14.81,1.59,4.58.71,8.81,1.42,12.7,2.12,9.16,3.18,15.51,7.78,19.04,13.79,3.52,6.01,5.29,12.82,5.29,20.42s-.88,15.56-2.64,23.87c-1.76,8.31-3.36,16.54-4.76,24.66l-82.52,441.28h165.03v-2.65c-19.4-7.07-25.58-18.56-38.09-34.47-12.52-15.91-22.31-34.56-29.36-55.96-7.06-21.39-11.9-44.28-14.55-68.69-1.51-13.95-2.48-27.9-3.01-41.85h78.03c1.01,6.53,2.08,13.19,3.26,20.11,3.52,20.51,8.28,41.1,14.29,61.79,5.99,20.68,13.75,39.69,23.27,57.02,9.52,17.33,21.24,31.21,35.18,41.63,13.92,10.44,30.59,15.65,49.98,15.65,13.75,0,34.37-2.12,42.31-6.36,7.93-4.24,13.93-9.72,17.99-16.45,4.05-6.71,6.69-13.7,7.93-20.95,1.23-7.24,1.85-13.87,1.85-19.89,0-15.55-1.68-34.47-5.03-56.75-3.35-22.28-7.58-46.32-12.69-72.13-5.12-25.81-10.14-51.71-15.08-77.71-4.94-25.99-9.08-50.39-12.43-73.19-3.36-22.81-5.03-42.34-5.03-58.6,0-9.55.53-19.62,1.59-30.23,1.06-10.61,3.17-20.68,6.35-30.23,3.17-9.55,7.75-17.24,13.75-23.07,5.99-5.83,13.93-8.75,23.8-8.75,8.13,0,12.39,2.91,16.99,10.02,2.96,4.57,4.25,10.01,5.37,15.34,12.69,59.89,16.32,123.08,24.45,183.88,4.23,31.65,8.46,62.5,12.7,92.55,4.23,30.05,8.54,61.17,12.96,93.35,4.41,32.17,9.26,67.71,14.54,106.6h79.35s-.01-.09-.02-.13h42.98v-2.56ZM331.64,695.44c-.03-4.17-.07-8.34-.01-12.51.35-24.4,1.59-47.38,3.7-68.95,2.11-21.57,4.23-40.31,6.35-56.22,2.11-15.2,3.88-27.85,5.29-37.92,1.4-10.08,2.64-18.83,3.7-26.25.56-3.95,2.07-14.55,3.58-25.06,1.32-9.23,2.64-18.39,3.3-22.94,1.41-9.73,11.38-18.47,14.55-5.04,3.17,13.44,6.16,30.77,8.99,51.97,2.11,17.33,3.97,33.24,5.55,47.74,1.59,14.5,3.44,29.35,5.56,44.55,2.11,15.21,4.58,32.71,7.4,52.51,1.76,9.9,3.61,23.43,5.56,40.58.64,5.64,1.39,11.54,2.2,17.54h-75.72Z"/>
  <path class="cls-1" d="M496.44,443.55l2.74,14,2.74-14c12.26-62.5,21.74-73.01,78.06-86.54l11.32-2.72-11.32-2.72c-56.32-13.53-65.81-24.05-78.06-86.54l-2.74-14-2.74,14c-12.25,62.5-21.74,73.01-78.07,86.54l-11.32,2.72,11.32,2.72c56.33,13.52,65.82,24.04,78.07,86.54Z"/>
</svg>