<?xml version="1.0" encoding="UTF-8"?>
<svg id="Warstwa_1" data-name="Warstwa 1" xmlns="http://www.w3.org/2000/svg" viewBox="0 0 2887.74 1184.88">
  <defs>
    <style>
      .cls-1 {
        fill: #2b2b2b;
      }
    </style>
  </defs>
  <path class="cls-1" d="M588.85,476.15c-15.8-9.5-32.2-15.86-49.17-19.06-16.99-3.21-32.13-4.81-45.43-4.81-20.43,0-41.1,2.85-62,8.55-20.91,5.7-40.04,15.38-57.37,29.04-17.34,13.66-31.12,32.6-41.33,56.83l61.64,20.31c4.28-9.26,10.63-18.35,19.07-27.26,8.43-8.91,19.42-16.33,32.96-22.27,13.54-5.94,29.81-8.91,48.81-8.91s33.97,3.09,46.32,9.26c12.35,6.18,21.62,15.03,27.79,26.54,6.18,11.53,9.27,25.6,9.27,42.22v2.14c0,9.75-3.63,16.63-10.87,20.67-7.25,4.04-18.35,6.9-33.32,8.55-14.96,1.66-34.33,4.04-58.08,7.13-18.53,2.38-36.94,5.59-55.23,9.62-18.3,4.04-34.99,10.16-50.06,18.36-15.09,8.19-27.15,19.42-36.17,33.67-9.03,14.26-13.54,32.78-13.54,55.59,0,26.13,6.06,48.34,18.17,66.63,12.12,18.29,28.44,32.19,48.99,41.69,20.55,9.5,43.41,14.25,68.59,14.25,22.56,0,41.81-3.33,57.73-9.98,15.91-6.64,28.86-14.9,38.84-24.76,9.97-9.86,17.22-19.42,21.74-28.68h4.27v54.16h63.07v-262.61c0-31.12-5.17-56-15.5-74.65-10.33-18.65-23.4-32.73-39.19-42.22ZM579.41,711.68c0,16.15-4.28,31.66-12.83,46.5-8.55,14.84-21.02,26.9-37.42,36.16-16.39,9.26-36.47,13.9-60.21,13.9-15.92,0-30.06-2.37-42.4-7.13-12.36-4.75-22.1-11.76-29.22-21.02-7.12-9.26-10.69-20.79-10.69-34.56,0-15.21,4.04-27.26,12.11-36.17,8.07-8.91,18.82-15.68,32.25-20.31,13.42-4.63,27.85-7.9,43.29-9.8,6.18-.71,14.55-1.71,25.12-3.02,10.57-1.3,21.5-2.9,32.78-4.81,11.28-1.9,21.32-4.1,30.11-6.59,8.78-2.49,14.48-5.28,17.1-8.38v55.23Z"/>
  <path class="cls-1" d="M956.76,521.76h-4.99c-4.28-7.12-10.52-16.09-18.71-26.91-8.19-10.81-19.89-20.49-35.1-29.04-15.2-8.55-35.75-12.83-61.64-12.83-33.02,0-62.24,8.31-87.65,24.94-25.42,16.64-45.32,40.33-59.69,71.09-14.37,30.77-21.56,67.17-21.56,109.21s7.13,78.87,21.38,109.75c14.26,30.88,34.09,54.75,59.51,71.62,25.42,16.86,54.64,25.3,87.66,25.3,25.42,0,45.79-4.33,61.11-13,15.32-8.67,27.2-18.53,35.63-29.58,8.43-11.04,14.79-20.25,19.07-27.61h7.12v61.64h62V325.43h-64.14v196.33ZM944.65,735.55c-8.55,22.57-21.14,40.21-37.77,52.92-16.63,12.71-37.05,19.06-61.28,19.06s-45.5-6.71-62.36-20.13c-16.87-13.42-29.52-31.47-37.95-54.16-8.43-22.68-12.65-47.93-12.65-75.72s4.15-52.44,12.47-74.65c8.31-22.2,20.84-39.84,37.59-52.91,16.75-13.06,37.71-19.6,62.9-19.6s45.01,6.18,61.64,18.53c16.62,12.36,29.15,29.52,37.59,51.49,8.43,21.98,12.65,47.69,12.65,77.15s-4.28,55.47-12.83,78.03Z"/>
  <path class="cls-1" d="M1845.56,475.33c-15.8-9.5-32.19-15.86-49.17-19.07-16.99-3.21-32.13-4.81-45.43-4.81-20.43,0-41.1,2.85-62,8.55-20.91,5.7-40.03,15.38-57.37,29.04-17.34,13.66-31.12,32.6-41.33,56.83l61.64,20.31c4.28-9.26,10.63-18.35,19.06-27.26,8.43-8.91,19.42-16.33,32.96-22.27,13.54-5.94,29.81-8.91,48.81-8.91s33.97,3.09,46.33,9.26c12.35,6.18,21.61,15.03,27.79,26.54,6.18,11.53,9.27,25.6,9.27,42.22v2.14c0,9.74-3.63,16.63-10.87,20.67-7.25,4.04-18.35,6.9-33.32,8.56-14.96,1.66-34.33,4.04-58.08,7.13-18.53,2.38-36.94,5.59-55.23,9.62-18.3,4.04-34.99,10.16-50.06,18.36-15.09,8.19-27.15,19.42-36.17,33.67-9.03,14.26-13.54,32.78-13.54,55.59,0,26.13,6.06,48.34,18.17,66.63,12.12,18.29,28.44,32.19,49,41.69,20.55,9.5,43.41,14.25,68.59,14.25,22.56,0,41.81-3.33,57.73-9.98,15.91-6.64,28.86-14.9,38.84-24.76,9.97-9.86,17.22-19.42,21.74-28.68h4.27v54.16h63.07v-262.61c0-31.12-5.17-56-15.5-74.65-10.33-18.65-23.4-32.73-39.19-42.22ZM1836.12,710.85c0,16.15-4.28,31.66-12.83,46.5-8.55,14.84-21.02,26.9-37.41,36.16-16.39,9.26-36.47,13.9-60.21,13.9-15.92,0-30.06-2.37-42.4-7.12-12.36-4.75-22.1-11.76-29.22-21.02-7.12-9.26-10.69-20.79-10.69-34.56,0-15.21,4.04-27.26,12.11-36.17,8.07-8.91,18.82-15.68,32.25-20.31,13.42-4.63,27.85-7.9,43.29-9.8,6.18-.71,14.55-1.71,25.12-3.02,10.57-1.3,21.5-2.9,32.78-4.81,11.28-1.9,21.32-4.1,30.11-6.59,8.78-2.49,14.48-5.28,17.1-8.38v55.23Z"/>
  <path class="cls-1" d="M2083.65,801.36c-6.3.96-11.47,1.42-15.5,1.42-16.87,0-28.92-4.09-36.17-12.29-7.24-8.2-10.86-21.2-10.86-39.02v-240.16h81.96v-54.87h-81.96v-94.78h-64.14v94.78h-59.87v54.87h59.87v245.15c0,32.55,9.62,57.9,28.86,76.07,19.24,18.17,46.08,27.26,80.53,27.26,8.31,0,16.69-.59,25.12-1.78,8.43-1.19,15.97-2.97,22.62-5.35l-13.18-54.16c-5.23.95-10.99,1.9-17.28,2.85Z"/>
  <path class="cls-1" d="M2383.39,495.81c-16.74-15.55-35.4-26.84-55.94-33.85-20.55-7.01-41.4-10.51-62.53-10.51-36.11,0-67.65,8.79-94.6,26.37-26.97,17.58-47.81,41.93-62.54,73.05-14.73,31.12-22.1,67.11-22.1,107.96s7.54,76.61,22.63,107.25c15.08,30.64,36.58,54.52,64.5,71.62,27.91,17.1,61.11,25.65,99.59,25.65,27.32,0,51.84-4.27,73.58-12.83,21.73-8.55,39.96-20.43,54.69-35.63,14.73-15.2,25.18-32.78,31.36-52.73l-62-17.1c-4.99,13.54-12.12,24.89-21.38,34.03-9.26,9.14-20.31,15.98-33.14,20.49-12.83,4.51-27.08,6.77-42.76,6.77-24.23,0-45.55-5.28-63.96-15.86-18.41-10.57-32.73-26.13-42.93-46.68-9.21-18.52-14.23-40.7-15.14-66.45h287.73v-26.73c0-36.82-4.99-67.93-14.97-93.36-9.97-25.41-23.34-45.9-40.09-61.47ZM2203.27,526.1c17.1-11.76,37.65-17.64,61.65-17.64s44.06,5.76,60.21,17.28c16.15,11.52,28.33,27.44,36.52,47.75,6.04,14.98,9.84,31.55,11.43,49.7h-222.21c1.15-18.03,5.53-35.08,13.2-51.13,9.02-18.88,22.1-34.21,39.19-45.96Z"/>
  <path class="cls-1" d="M2554.32,434.66c-56.15-13.49-65.61-23.97-77.82-86.27l-2.73-13.96-2.73,13.96c-12.21,62.3-21.67,72.79-77.82,86.27l-11.28,2.71,11.28,2.71c56.16,13.48,65.61,23.97,77.82,86.27l2.73,13.96,2.73-13.96c12.22-62.31,21.67-72.79,77.82-86.27l11.28-2.71-11.28-2.71Z"/>
  <path class="cls-1" d="M1576.78,849.29c-19.87-3.61-20.37-22.87-22.54-38.93-2.74-20.37-5.47-40.75-8.16-61.12-4.23-31.99-8.38-63.02-12.43-93.06-4.05-30.04-8.28-60.98-12.69-92.8-4.42-31.82-9.44-66.82-15.07-105-2.47-16.62-4.94-33.05-7.41-49.31-2.47-16.26-6.17-31.11-11.11-44.55-4.94-13.43-12.42-24.21-22.48-32.35-10.05-8.13-23.89-12.2-41.51-12.2-30.33,0-53.94,11.14-70.86,33.41-16.92,22.27-24.68,53.39-23.27,93.33.7,19.09,2.46,38.89,5.29,59.39,2.82,20.51,6.08,40.75,9.78,60.72,3.7,19.98,7.22,38.63,10.58,55.95,3.35,17.32,6.08,32.17,8.2,44.54,3.17,19.44,6.17,37.83,8.99,55.15,2.82,17.32,4.4,32.61,4.76,45.87.35,13.26-1.41,23.69-5.29,31.29-3.89,7.61-11.11,11.4-21.68,11.4-8.12,0-15.52-4.15-22.22-12.46-6.7-8.31-12.78-19.09-18.25-32.35-5.47-13.26-10.04-27.49-13.75-42.69-3.7-15.2-6.61-29.7-8.73-43.48-4.23-27.57-8.02-53.2-11.37-76.89-3.36-23.68-6.61-47.01-9.78-70-3.17-22.97-6.53-47.01-10.05-72.12-3.53-25.1-7.4-53.03-11.64-83.78-2.47-16.61-7.85-29.43-16.13-38.45-8.28-9.01-18.6-13.52-30.93-13.52h-114.23v2.65c5.29.35,10.22.89,14.81,1.59,4.58.71,8.81,1.42,12.69,2.12,9.16,3.18,15.51,7.78,19.04,13.79,3.52,6.01,5.29,12.82,5.29,20.42s-.88,15.56-2.64,23.86c-1.76,8.31-3.35,16.53-4.76,24.66l-82.5,441.19h165v-2.65c-19.39-7.07-25.58-18.56-38.08-34.46-12.52-15.91-22.3-34.55-29.35-55.95-7.06-21.38-11.9-44.28-14.55-68.67-2.64-24.39-3.79-48.78-3.44-73.17.35-24.39,1.59-47.37,3.7-68.94,2.11-21.56,4.23-40.3,6.35-56.21,2.11-15.2,3.88-27.84,5.29-37.92,1.4-10.07,2.64-18.83,3.7-26.25.56-3.95,2.07-14.54,3.58-25.05,1.32-9.23,2.64-18.39,3.3-22.93,1.41-9.72,11.38-18.47,14.55-5.04,3.17,13.44,6.16,30.76,8.99,51.96,2.11,17.33,3.96,33.23,5.55,47.73,1.59,14.5,3.44,29.34,5.55,44.54,2.11,15.2,4.58,32.7,7.4,52.5,1.76,9.9,3.61,23.42,5.55,40.57,1.93,17.15,4.67,35.97,8.19,56.47,3.52,20.51,8.28,41.09,14.29,61.78,5.99,20.68,13.75,39.68,23.26,57,9.52,17.32,21.24,31.2,35.17,41.63,13.92,10.43,30.58,15.64,49.97,15.64,13.75,0,34.37-2.12,42.3-6.36,7.93-4.24,13.93-9.72,17.98-16.44,4.05-6.71,6.69-13.69,7.93-20.94,1.23-7.24,1.85-13.87,1.85-19.89,0-15.55-1.68-34.47-5.03-56.74-3.35-22.27-7.58-46.31-12.69-72.12-5.12-25.8-10.14-51.7-15.08-77.69-4.94-25.98-9.08-50.38-12.43-73.18-3.36-22.8-5.03-42.33-5.03-58.59,0-9.54.53-19.62,1.59-30.22,1.06-10.6,3.17-20.68,6.35-30.22,3.17-9.55,7.75-17.24,13.75-23.07,5.99-5.83,13.93-8.75,23.8-8.75,8.13,0,12.38,2.91,16.99,10.02,2.96,4.57,4.24,10,5.37,15.33,12.68,59.88,16.32,123.05,24.44,183.84,4.23,31.65,8.46,62.49,12.69,92.53,4.23,30.05,8.54,61.16,12.96,93.33,4.4,32.17,9.25,67.7,14.54,106.58h79.33s-.01-.09-.02-.13h42.97v-2.56c-5.1-.34-9.86-.86-14.29-1.53-4.42-.69-8.5-1.37-12.25-2.05Z"/>
</svg>